<svg id="Layer_2" xml:space="preserve" enable-background="new 0 0 100 100" viewBox="0 0 100 100" height="100px" width="100px" y="0px" x="0px" version="1.1" xmlns:xlink="http://www.w3.org/1999/xlink" xmlns="http://www.w3.org/2000/svg"><path d="M50.576,56.758c1.854,1.298,8.215,4.695,9.452,4.695   c-4.016,1.174-6.486,2.657-8.525,2.657c-2.038,0-7.784,0.616-9.08,0C45.016,62.689,50.576,56.758,50.576,56.758 M78.498,29.207   c0.988,0.865,0.988,3.583,2.965,1.483c1.482-0.371,2.225-1.359,2.717-1.483c1.854,0.247,1.979-0.865,1.979-1.483   s0.617-1.112,1.111-1.112s0.988-1.482,1.234-2.595c0.248-1.112,0.125-5.931-3.088-7.042c-3.213-1.112-6.178-0.247-6.918,1.853   c-0.742,2.1-1.236,4.448-1.854,3.954c-0.617-0.495-1.236-0.248-1.236-1.235c0-0.989-2.223-3.939-4.324-5.059   c-1.977-3.343-4.447-4.331-5.312-5.196c-0.863-0.865-2.471-3.089-3.459-3.213c-0.988-0.123,0.123-0.988-0.865-1.111   c-0.987-0.124-14.084-0.371-17.667,0c-3.583,0.371-7.112-0.329-8.277,0.371c-0.618,0.371-0.495,0.741-1.112,0.865   c-0.618,0.123-1.73,1.235-1.668,1.915c-1.111,0.247-2.223,1.297-1.791,1.544c0.433,0.247,2.718-0.803,3.398-0.556   c0.679,0.247-2.348,1.729-2.595,2.1c-0.247,0.371,0.186,0.864,0.988,0.618c0.803-0.247,3.151-1.792,4.572-1.482   c1.421,0.309,1.05,0.433,1.236,1.05c0.185,0.618-1.545,1.359-1.483,2.533c0.062,1.174,0.68,1.297,1.05,0.556   c0.371-0.742,1.174-1.854,2.163-1.978c0.988-0.124,1.135-2.458,2.224-3.274c0.741-0.556,5.25-0.185,7.29,0.248   c2.038,0.432,8.215,0.062,9.389,0.988c1.174,0.926,0.556,3.15,2.41,4.633c1.852,1.482,3.768,4.077,4.076,4.571   c-1.791,1.42-5.684,4.757-6.672,6.301c-0.988,1.544-4.262,6.178-4.694,6.487c0,0.988-1.606,2.286-2.78,2.718   c-1.173,0.433-2.594,1.668-3.274,2.163c-0.989,0-1.049,0.185-1.42,0.618c-0.68,0.247-1.421,1.235-1.73,1.729   c0.495,0.247,0.495,0.062,0.062,0.494c-0.433,0.432-2.656,3.583-3.274,6.548c-1.668,2.162-3.511,3.882-4.263,4.634   c-2.471,2.471-4.633,8.895-5.374,9.637c-0.742,0.742-6.796,4.016-8.34,5.931c-1.544,1.915-1.297,2.841-1.606,3.15   s-8.524,9.019-9.389,8.648c-0.865-0.371-4.942-1.112-5.622-0.927c-0.371,1.854-1.05,4.942-0.926,6.054   c0.124,1.112-0.495,3.027-0.803,4.571c-0.309,1.545-0.556,5.375,1.05,6.364c1.605,0.987,2.1-3.708,2.347-3.894   c0.247-0.185,3.274-3.396,3.768-4.509s2.718-3.15,3.892-4.386c1.173-1.235,12.539-10.811,14.64-11.799   c2.1-0.989,4.077-1.979,5.065-2.719c0.432,2.904,2.41,10.811,5.004,11.182c2.594,0.37,1.482-1.483,1.482-2.719   s-0.371-2.348,0.247-2.966c0.617-0.617,0.062-1.79,0.494-2.655c0.433-0.865,2.162-1.792,2.039-2.102   c-0.124-0.308-1.05-0.493,0.123-0.617c1.174-0.123,13.096-0.186,16.617,0s4.447-0.74,6.178-0.617   c1.729,0.123,2.039-0.803,2.719-0.927s2.594-1.915,1.543-5.065c-1.049-3.15-8.029-12.17-10.625-13.776   c-0.186-2.595-0.494-1.73,0.062-2.163s4.139-1.915,5.498-3.336s2.656-1.174,4.016-2.224c1.357-1.05,3.459-3.335,4.139-3.459   c0.68-0.124,5.807,6.734,8.338,7.537c2.533,0.803,1.537,3.055,5.746,2.718c1.543-0.124,2.439-6.035,2.779-7.907   c0.246-1.359,0.865-6.61,0.988-7.414s1.051-3.027,0.988-3.397c-0.061-0.371-0.309-1.297-0.246-2.348   c0.061-1.049,0.186-4.015,0-4.201c-0.186-0.185-1.111-0.432-0.988,0.495s0.061,1.854,0,2.286c-0.434,0.062-0.68-2.255-0.619-2.934   c0.062-0.68-0.68-2.873-0.74,0.092c-0.102,4.88-0.186,2.348-0.186,2.533c-0.434,0.124-0.434-1.359-0.434-1.977   s0.186-2.286-0.184-2.471c-0.371-0.186-1.111-0.124-1.051,1.111c0.062,1.236,0.309,2.472,0.309,2.842v0.803   c-0.369,0.185-0.74-2.348-0.74-2.657c0-0.309-1.113-3.274-0.928,0c0.186,3.274,0.309,2.348,0.494,2.78   c0.186,0.433,0.186,1.729,0.062,2.162c-0.617-0.803-0.309-1.482-0.742-1.667c-0.432-0.186-1.482-0.309-1.049,1.297   c0.432,1.606,1.914,2.904,2.348,3.521c0.432,0.617,0.309,3.027-0.062,4.201c-0.371,1.173-1.977,4.263-2.285,5.498   c-0.742-1.296-3.398-2.841-4.51-3.335c-1.113-0.494,0.432-2.965-3.398-5.869C75.902,28.836,78.498,29.207,78.498,29.207" fill="none"></path><path d="M50.576,56.758c1.854,1.298,8.215,4.695,9.452,4.695c-4.016,1.174-6.486,2.657-8.525,2.657   c-2.038,0-7.784,0.616-9.08,0C45.016,62.689,50.576,56.758,50.576,56.758z M78.498,29.207c0.988,0.865,0.988,3.583,2.965,1.483   c1.482-0.371,2.225-1.359,2.717-1.483c1.854,0.247,1.979-0.865,1.979-1.483s0.617-1.112,1.111-1.112s0.988-1.482,1.234-2.595   c0.248-1.112,0.125-5.931-3.088-7.042c-3.213-1.112-6.178-0.247-6.918,1.853c-0.742,2.1-1.236,4.448-1.854,3.954   c-0.617-0.495-1.236-0.248-1.236-1.235c0-0.989-2.223-3.939-4.324-5.059c-1.977-3.343-4.447-4.331-5.312-5.196   c-0.863-0.865-2.471-3.089-3.459-3.213c-0.988-0.123,0.123-0.988-0.865-1.111c-0.987-0.124-14.084-0.371-17.667,0   c-3.583,0.371-7.112-0.329-8.277,0.371c-0.618,0.371-0.495,0.741-1.112,0.865c-0.618,0.123-1.73,1.235-1.668,1.915   c-1.111,0.247-2.223,1.297-1.791,1.544c0.433,0.247,2.718-0.803,3.398-0.556c0.679,0.247-2.348,1.729-2.595,2.1   c-0.247,0.371,0.186,0.864,0.988,0.618c0.803-0.247,3.151-1.792,4.572-1.482c1.421,0.309,1.05,0.433,1.236,1.05   c0.185,0.618-1.545,1.359-1.483,2.533c0.062,1.174,0.68,1.297,1.05,0.556c0.371-0.742,1.174-1.854,2.163-1.978   c0.988-0.124,1.135-2.458,2.224-3.274c0.741-0.556,5.25-0.185,7.29,0.248c2.038,0.432,8.215,0.062,9.389,0.988   c1.174,0.926,0.556,3.15,2.41,4.633c1.852,1.482,3.768,4.077,4.076,4.571c-1.791,1.42-5.684,4.757-6.672,6.301   c-0.988,1.544-4.262,6.178-4.694,6.487c0,0.988-1.606,2.286-2.78,2.718c-1.173,0.433-2.594,1.668-3.274,2.163   c-0.989,0-1.049,0.185-1.42,0.618c-0.68,0.247-1.421,1.235-1.73,1.729c0.495,0.247,0.495,0.062,0.062,0.494   c-0.433,0.432-2.656,3.583-3.274,6.548c-1.668,2.162-3.511,3.882-4.263,4.634c-2.471,2.471-4.633,8.895-5.374,9.637   c-0.742,0.742-6.796,4.016-8.34,5.931c-1.544,1.915-1.297,2.841-1.606,3.15s-8.524,9.019-9.389,8.648   c-0.865-0.371-4.942-1.112-5.622-0.927c-0.371,1.854-1.05,4.942-0.926,6.054c0.124,1.112-0.495,3.027-0.803,4.571   c-0.309,1.545-0.556,5.375,1.05,6.364c1.605,0.987,2.1-3.708,2.347-3.894c0.247-0.185,3.274-3.396,3.768-4.509   s2.718-3.15,3.892-4.386c1.173-1.235,12.539-10.811,14.64-11.799c2.1-0.989,4.077-1.979,5.065-2.719   c0.432,2.904,2.41,10.811,5.004,11.182c2.594,0.37,1.482-1.483,1.482-2.719s-0.371-2.348,0.247-2.966   c0.617-0.617,0.062-1.79,0.494-2.655c0.433-0.865,2.162-1.792,2.039-2.102c-0.124-0.308-1.05-0.493,0.123-0.617   c1.174-0.123,13.096-0.186,16.617,0s4.447-0.74,6.178-0.617c1.729,0.123,2.039-0.803,2.719-0.927s2.594-1.915,1.543-5.065   c-1.049-3.15-8.029-12.17-10.625-13.776c-0.186-2.595-0.494-1.73,0.062-2.163s4.139-1.915,5.498-3.336s2.656-1.174,4.016-2.224   c1.357-1.05,3.459-3.335,4.139-3.459c0.68-0.124,5.807,6.734,8.338,7.537c2.533,0.803,1.537,3.055,5.746,2.718   c1.543-0.124,2.439-6.035,2.779-7.907c0.246-1.359,0.865-6.61,0.988-7.414s1.051-3.027,0.988-3.397   c-0.061-0.371-0.309-1.297-0.246-2.348c0.061-1.049,0.186-4.015,0-4.201c-0.186-0.185-1.111-0.432-0.988,0.495s0.061,1.854,0,2.286   c-0.434,0.062-0.68-2.255-0.619-2.934c0.062-0.68-0.68-2.873-0.74,0.092c-0.102,4.88-0.186,2.348-0.186,2.533   c-0.434,0.124-0.434-1.359-0.434-1.977s0.186-2.286-0.184-2.471c-0.371-0.186-1.111-0.124-1.051,1.111   c0.062,1.236,0.309,2.472,0.309,2.842v0.803c-0.369,0.185-0.74-2.348-0.74-2.657c0-0.309-1.113-3.274-0.928,0   c0.186,3.274,0.309,2.348,0.494,2.78c0.186,0.433,0.186,1.729,0.062,2.162c-0.617-0.803-0.309-1.482-0.742-1.667   c-0.432-0.186-1.482-0.309-1.049,1.297c0.432,1.606,1.914,2.904,2.348,3.521c0.432,0.617,0.309,3.027-0.062,4.201   c-0.371,1.173-1.977,4.263-2.285,5.498c-0.742-1.296-3.398-2.841-4.51-3.335c-1.113-0.494,0.432-2.965-3.398-5.869   C75.902,28.836,78.498,29.207,78.498,29.207z"></path></svg>